<?xml version="1.0" encoding="utf-8"?>
<!-- Generator: Adobe Illustrator 22.0.1, SVG Export Plug-In . SVG Version: 6.00 Build 0)  -->
<svg version="1.1" id="Layer_1" focusable="false" xmlns="http://www.w3.org/2000/svg" xmlns:xlink="http://www.w3.org/1999/xlink"
	 x="0px" y="0px" viewBox="0 0 486 494.4" style="enable-background:new 0 0 486 494.4;" xml:space="preserve">
<style type="text/css">
	.st0{fill:#BFBFBF;}
</style>
<path class="st0" d="M434.1,4.4H53.9C25.2,4.4,2,27.7,2,56.3v380.3c0,28.6,23.2,51.9,51.9,51.9h380.3c28.6,0,51.9-23.2,51.9-51.9
	V56.3C486,27.7,462.8,4.4,434.1,4.4z M416.4,336.5l-16.2,70.2c-1.7,7.3-8.2,12.5-15.8,12.5C211.6,419.3,71.1,279.2,71.1,106
	c0.2-7.5,5.4-13.8,12.5-15.8L153.9,74c1.2-0.2,2.4-0.4,3.7-0.4c6.4,0.3,12.1,4.1,14.9,9.8l32.4,75.6c0.8,2.1,1.2,4.2,1.3,6.4
	c-0.2,4.8-2.4,9.3-5.9,12.5l-40.9,33.5c24.8,52.6,67.1,94.9,119.7,119.7l33.5-40.9c3.2-3.6,7.8-5.7,12.5-5.9
	c2.2,0.1,4.3,0.5,6.4,1.3l75.6,32.4c5.7,2.8,9.5,8.5,9.8,14.9C416.9,334,416.6,335.3,416.4,336.5z"/>
</svg>
